<svg width="218" height="131" fill="none" xmlns="http://www.w3.org/2000/svg"><path opacity=".5" d="m144.35 76.575.984.176-.984-.176ZM86.327 13.848l.943.334-.943-.334Zm66.312 103.477-.164.987.164-.987Zm65.068 6.66a.999.999 0 0 0 0-1.414l-6.364-6.364a.999.999 0 1 0-1.414 1.414l5.657 5.657-5.657 5.657a.999.999 0 1 0 1.414 1.414l6.364-6.364ZM2.573 99.215a1 1 0 0 0 .624-1.9l-.624 1.9Zm4.458-.673a1 1 0 1 0-.596 1.909l.596-1.91Zm3.287 3.09a1 1 0 1 0 .569-1.917l-.569 1.917Zm4.446-.796a1 1 0 1 0-.543 1.925l.543-1.925Zm3.348 2.994a1 1 0 0 0 .517-1.932l-.517 1.932Zm4.404-.918a1 1 0 0 0-.492 1.939l.492-1.939Zm3.44 2.912a1 1 0 0 0 .469-1.945l-.468 1.945Zm4.395-1.027a1 1 0 0 0-.443 1.95l.443-1.95Zm3.506 2.82a1 1 0 0 0 .418-1.956l-.418 1.956Zm4.354-1.143a1 1 0 1 0-.391 1.961l.391-1.961Zm3.588 2.728a1 1 0 0 0 .365-1.967l-.365 1.967Zm4.328-1.261a1 1 0 0 0-.337 1.972l.337-1.972Zm3.657 2.625a1 1 0 0 0 .308-1.976l-.308 1.976Zm4.286-1.387a1 1 0 1 0-.278 1.981l.278-1.981Zm3.74 2.512a1 1 0 1 0 .246-1.985l-.247 1.985Zm4.238-1.524a1 1 0 0 0-.213 1.989l.213-1.989Zm3.823 2.384a1 1 0 1 0 .177-1.992l-.177 1.992Zm4.18-1.675a1 1 0 0 0-.138 1.996l.138-1.996Zm3.908 2.236a1 1 0 0 0 .098-1.997l-.098 1.997Zm4.114-1.844a1 1 0 1 0-.054 1.999l.054-1.999Zm4.006 2.061a1 1 0 0 0 .006-2l-.006 2Zm4.009-2.039a1 1 0 0 0 .045 2l-.045-2Zm4.109 1.85a1 1 0 1 0-.102-1.997l.102 1.997Zm3.9-2.263a1 1 0 1 0 .164 1.993l-.164-1.993Zm4.214 1.589a1 1 0 1 0-.233-1.986l.233 1.986Zm3.72-2.526a1 1 0 1 0 .309 1.976l-.309-1.976Zm4.319 1.262a1 1 0 1 0-.393-1.961l.393 1.961Zm3.504-2.84a1 1 0 0 0 .489 1.939l-.489-1.939Zm4.43.834a1 1 0 1 0-.593-1.91l.593 1.91Zm3.163-3.203a1 1 0 1 0 .711 1.869l-.711-1.869Zm4.493.281a1 1 0 0 0-.84-1.815l.84 1.815Zm2.678-3.613a1 1 0 1 0 .982 1.743l-.982-1.743Zm4.479-.434a1 1 0 0 0-1.133-1.649l1.133 1.649Zm1.996-4.031a1 1 0 0 0 1.29 1.528l-1.29-1.528Zm4.308-1.305a.999.999 0 1 0-1.445-1.382l1.445 1.382Zm1.102-4.365a1 1 0 0 0 1.592 1.21l-1.592-1.21Zm3.909-2.228a1 1 0 1 0-1.719-1.022l1.719 1.022Zm.088-4.496a1 1 0 0 0 1.823.823l-1.823-.823Zm3.32-3.025a1 1 0 1 0-1.899-.627l1.899.627Zm-.852-4.41a1 1 0 1 0 1.951.44l-1.951-.44Zm2.706-3.629a1 1 0 1 0-1.975-.313l1.975.313Zm-1.436-4.193a1 1 0 1 0 1.986.236l-1.986-.236Zm2.381-3.795a1 1 0 0 0-1.995-.153l1.995.153Zm-1.778-4.086a1 1 0 1 0 1.999.066l-1.999-.066Zm2.042-3.943a1 1 0 0 0-2 .024l2-.024Zm-2.142-3.917a1 1 0 0 0 1.997-.12l-1.997.12Zm1.655-4.147a1 1 0 1 0-1.988.219l1.988-.22Zm-2.518-3.674a1 1 0 0 0 1.974-.322l-1.974.322Zm1.22-4.279a1 1 0 1 0-1.953.427l1.953-.427Zm-2.896-3.373a1 1 0 0 0 1.927-.536l-1.927.536Zm.73-4.405a1 1 0 0 0-1.893.648l1.893-.648Zm-3.275-3.029a1 1 0 1 0 1.85-.76l-1.85.76Zm.194-4.454a.999.999 0 1 0-1.798.875l1.798-.875Zm-3.626-2.591a1 1 0 0 0 1.738-.99l-1.738.99Zm-.385-4.44a1 1 0 0 0-1.667 1.105l1.667-1.106Zm-3.942-2.077a1 1 0 0 0 1.585-1.22l-1.585 1.22Zm-1.007-4.341a1 1 0 1 0-1.49 1.334l1.49-1.334Zm-4.204-1.47a1 1 0 0 0 1.381-1.447l-1.381 1.447Zm-1.671-4.128a1 1 0 1 0-1.255 1.556l1.255-1.556Zm-4.384-.746a1 1 0 1 0 1.11-1.663l-1.11 1.663Zm-2.399-3.767a1 1 0 0 0-.94 1.765l.94-1.765Zm-4.455.131a1 1 0 1 0 .739-1.858l-.739 1.858ZM110.62.878a1 1 0 1 0-.499 1.936l.499-1.936Zm-4.272 1.248a1 1 0 1 0 .209-1.99l-.209 1.99ZM102.405.055a1 1 0 1 0 .139 1.995l-.139-1.995Zm-3.579 2.629a1 1 0 1 0-.54-1.926l.54 1.926Zm-4.433-.34a1 1 0 0 0 .964 1.752l-.964-1.753Zm-2.07 3.924a1 1 0 1 0-1.348-1.478l1.347 1.478Zm-4.118 1.687a1 1 0 1 0 1.638 1.147l-1.639-1.147Zm-.215 4.431a1 1 0 0 0-1.824-.82l1.824.82Zm-3.247 3.084a1 1 0 0 0 1.914.579l-1.914-.58Zm.93 4.425a1 1 0 0 0-1.956-.414l1.957.414Zm-2.657 3.652a1 1 0 1 0 1.982.268l-1.982-.268Zm1.583 4.225a1 1 0 1 0-1.996-.136l1.996.136Zm-2.151 3.967a1 1 0 1 0 2 .017l-2-.017Zm2.077 4.01a1 1 0 0 0-1.998.093l1.998-.093Zm-1.703 4.182a1 1 0 0 0 1.991-.194l-1.99.194Zm2.477 3.777a1 1 0 1 0-1.979.29l1.98-.29Zm-1.29 4.328a1 1 0 0 0 1.963-.381l-1.963.381Zm2.815 3.532a1 1 0 0 0-1.945.469l1.945-.469Zm-.9 4.426a1 1 0 0 0 1.923-.552l-1.923.552Zm3.111 3.275a1 1 0 1 0-1.897.634l1.897-.634Zm-.518 4.487a1 1 0 0 0 1.868-.714l-1.868.714Zm3.376 3a1 1 0 1 0-1.836.791l1.836-.791Zm-.138 4.514a1 1 0 0 0 1.802-.868l-1.802.868Zm3.619 2.704a1 1 0 0 0-1.763.944l1.763-.944Zm.247 4.51a1 1 0 0 0 1.72-1.02l-1.72 1.02Zm3.838 2.38a1 1 0 0 0-1.674 1.094l1.674-1.094Zm.642 4.469a1 1 0 1 0 1.623-1.169l-1.623 1.169Zm4.035 2.026a1 1 0 0 0-1.569 1.241l1.569-1.241Zm1.047 4.392a1 1 0 0 0 1.509-1.313l-1.509 1.313Zm4.207 1.64a1 1 0 0 0-1.444 1.385l1.444-1.384Zm1.462 4.273a1 1 0 0 0 1.375-1.453l-1.375 1.453Zm4.347 1.223a1 1 0 0 0-1.301 1.519l1.301-1.52Zm1.882 4.106a1 1 0 1 0 1.221-1.584l-1.221 1.584Zm4.45.776a1 1 0 1 0-1.138 1.644l1.138-1.644Zm2.294 3.889a1 1 0 1 0 1.05-1.702l-1.05 1.702Zm4.502.304a1 1 0 1 0-.959 1.755l.959-1.755Zm2.688 3.625a1 1 0 1 0 .865-1.803l-.865 1.803Zm4.511-.172a1 1 0 1 0-.768 1.847l.768-1.847Zm3.06 3.323a1 1 0 0 0 .67-1.885l-.67 1.885Zm4.476-.642a1 1 0 1 0-.571 1.917l.571-1.917Zm3.382 2.986a1.001 1.001 0 0 0 .473-1.944l-.473 1.944Zm4.373-1.097a1 1 0 1 0-.376 1.964l.376-1.964Zm3.688 2.663a1 1 0 0 0 .326-1.973l-.326 1.973Zm4.316-1.316a1.001 1.001 0 0 0-.324 1.974l.324-1.974Zm3.662 2.626a1 1 0 0 0 .321-1.974l-.321 1.974Zm4.311-1.329a.999.999 0 1 0-.316 1.974l.316-1.974Zm3.698 2.611a1 1 0 1 0 .309-1.976l-.309 1.976Zm4.294-1.361a.999.999 0 1 0-.299 1.977l.299-1.977Zm3.706 2.567a.999.999 0 1 0 .283-1.98l-.283 1.98Zm4.28-1.433a1 1 0 0 0-.258 1.984l.258-1.984Zm3.791 2.472a1 1 0 1 0 .218-1.988l-.218 1.988Zm4.212-1.603a1 1 0 0 0-.164 1.994l.164-1.994Zm3.91 2.259a1 1 0 1 0 .097-1.997l-.097 1.997Zm4.112-1.864a1 1 0 1 0-.039 2l.039-2Zm4.021 2.04a1 1 0 0 0 .005-2l-.005 2Zm4.051-2.006a1 1 0 0 0 .008 2l-.008-2Zm4.049 1.981a1 1 0 1 0-.008-2l.008 2Zm4.046-2.013a1 1 0 0 0 .004 2l-.004-2ZM.68 98.585c.622.21 1.253.42 1.893.63l.624-1.9c-.635-.209-1.26-.417-1.877-.625l-.64 1.895Zm5.755 1.866c1.267.395 2.562.789 3.883 1.181l.569-1.917a285.29 285.29 0 0 1-3.856-1.173l-.596 1.909Zm7.786 2.31c1.277.359 2.574.716 3.89 1.069l.518-1.932a326.92 326.92 0 0 1-3.865-1.062l-.543 1.925Zm7.803 2.09c1.296.329 2.607.654 3.933.973l.468-1.945a302.95 302.95 0 0 1-3.909-.967l-.492 1.939Zm7.884 1.896c1.305.297 2.622.587 3.95.87l.417-1.956a294.104 294.104 0 0 1-3.924-.864l-.443 1.95Zm7.912 1.688c1.319.264 2.645.519 3.98.767l.364-1.967a291.515 291.515 0 0 1-3.953-.761l-.391 1.961Zm7.97 1.478c1.326.227 2.658.444 3.994.653l.308-1.976a280.485 280.485 0 0 1-3.965-.649l-.337 1.972Zm8.002 1.247c1.337.187 2.677.365 4.017.531l.247-1.985a253.52 253.52 0 0 1-3.986-.527l-.278 1.981Zm8.043.996c1.346.144 2.692.276 4.036.395l.177-1.992a218.365 218.365 0 0 1-4-.392l-.213 1.989Zm8.078.716c1.352.094 2.7.174 4.046.24l.098-1.997a195.314 195.314 0 0 1-4.006-.239l-.138 1.996Zm8.106.395c1.36.037 2.713.058 4.06.062l.006-2c-1.33-.004-2.668-.025-4.012-.061l-.054 1.999Zm8.114.023c1.365-.031 2.72-.081 4.064-.15l-.102-1.997c-1.325.068-2.661.117-4.007.147l.045 2Zm8.128-.42c1.364-.113 2.714-.247 4.05-.404l-.233-1.986c-1.312.154-2.64.286-3.981.397l.164 1.993Zm8.079-.954a95.59 95.59 0 0 0 4.01-.714l-.393-1.961a92.642 92.642 0 0 1-3.926.699l.309 1.976Zm8.003-1.615a75.311 75.311 0 0 0 3.941-1.105l-.593-1.91a73.173 73.173 0 0 1-3.837 1.076l.489 1.939Zm7.815-2.439a58.106 58.106 0 0 0 3.782-1.588l-.84-1.815a56.78 56.78 0 0 1-3.653 1.534l.711 1.869Zm7.442-3.458a46.845 46.845 0 0 0 3.497-2.177l-1.133-1.649a43.657 43.657 0 0 1-3.346 2.083l.982 1.743Zm6.783-4.68a38.692 38.692 0 0 0 3.018-2.834l-1.445-1.381a36.846 36.846 0 0 1-2.863 2.687l1.29 1.528Zm5.712-5.988a36.278 36.278 0 0 0 2.317-3.438l-1.719-1.022a34.339 34.339 0 0 1-2.19 3.25l1.592 1.21Zm4.228-7.11a39.163 39.163 0 0 0 1.497-3.849l-1.899-.627a37.233 37.233 0 0 1-1.421 3.652l1.823.823Zm2.596-7.818c.152-.674.291-1.36.415-2.057l-1.969-.352a43.15 43.15 0 0 1-.397 1.968l1.951.44Zm.415-2.057c.121-.675.234-1.346.34-2.013l-1.975-.313a99.127 99.127 0 0 1-.334 1.974l1.969.352Zm.89-5.97c.162-1.36.293-2.704.395-4.031l-1.995-.153a94.77 94.77 0 0 1-.386 3.948l1.986.236Zm.616-8.051c.045-1.355.059-2.692.043-4.01l-2 .025a87.392 87.392 0 0 1-.042 3.919l1.999.066Zm-.102-8.046a80.549 80.549 0 0 0-.342-4.027l-1.988.219a78.92 78.92 0 0 1 .333 3.928l1.997-.12Zm-.886-8.023a74.455 74.455 0 0 0-.754-3.957l-1.953.427c.275 1.258.52 2.542.733 3.852l1.974-.322Zm-1.723-7.866a69.763 69.763 0 0 0-1.197-3.869l-1.893.648a67.549 67.549 0 0 1 1.163 3.757l1.927-.536Zm-2.622-7.658a64.315 64.315 0 0 0-1.656-3.694l-1.798.875a62.649 62.649 0 0 1 1.604 3.58l1.85-.761Zm-3.544-7.276a59.755 59.755 0 0 0-2.123-3.45l-1.667 1.106a57.835 57.835 0 0 1 2.052 3.335l1.738-.99Zm-4.48-6.747a55.297 55.297 0 0 0-2.592-3.12l-1.49 1.334a52.689 52.689 0 0 1 2.497 3.007l1.585-1.22Zm-5.415-6.037a48.661 48.661 0 0 0-3.052-2.681l-1.255 1.556c.99.8 1.967 1.657 2.926 2.572l1.381-1.447Zm-6.326-5.09a41.174 41.174 0 0 0-3.509-2.104l-.94 1.765a39.396 39.396 0 0 1 3.339 2.002l1.11-1.663Zm-7.225-3.831A32.543 32.543 0 0 0 110.62.878l-.499 1.936c1.208.312 2.43.712 3.657 1.2l.739-1.858Zm-7.96-2.02a23.869 23.869 0 0 0-4.152-.081l.139 1.995a21.867 21.867 0 0 1 3.804.076l.209-1.99Zm-8.271.622a18.357 18.357 0 0 0-3.893 1.585l.964 1.753c1.092-.6 2.252-1.07 3.47-1.412L98.285.758Zm-7.31 4.032a19.026 19.026 0 0 0-2.772 3.165l1.64 1.147a17.031 17.031 0 0 1 2.478-2.834L90.975 4.79Zm-4.81 6.775a25.632 25.632 0 0 0-.781 1.948l1.885.67a23.64 23.64 0 0 1 .72-1.797l-1.824-.82Zm-.781 1.948c-.228.64-.442 1.293-.642 1.957l1.914.579c.192-.634.396-1.257.613-1.867l-1.885-.669Zm-1.668 5.968a55.484 55.484 0 0 0-.7 4.066l1.981.268c.181-1.34.407-2.649.676-3.92l-1.957-.414Zm-1.114 8.155a68.744 68.744 0 0 0-.155 4.103l2 .017c.011-1.35.062-2.68.15-3.984l-1.995-.136Zm-.076 8.206c.062 1.349.16 2.713.295 4.09l1.991-.196a78.052 78.052 0 0 1-.288-3.987l-1.998.093Zm.793 8.157c.197 1.338.426 2.685.69 4.037l1.962-.381a86.813 86.813 0 0 1-.673-3.947l-1.979.29Zm1.56 8.038a94.397 94.397 0 0 0 1.044 3.957l1.923-.552a92.448 92.448 0 0 1-1.023-3.874l-1.945.469Zm2.258 7.866c.43 1.286.89 2.571 1.379 3.853l1.868-.714a94.639 94.639 0 0 1-1.35-3.773l-1.897.634Zm2.919 7.644a96.76 96.76 0 0 0 1.698 3.723l1.802-.868a94.81 94.81 0 0 1-1.664-3.646l-1.836.791Zm3.554 7.371a94.684 94.684 0 0 0 2.01 3.566l1.72-1.02a92.504 92.504 0 0 1-1.967-3.49l-1.763.944Zm4.174 7.04a91.137 91.137 0 0 0 2.316 3.375l1.623-1.169a89.645 89.645 0 0 1-2.265-3.3l-1.674 1.094Zm4.782 6.642a87.67 87.67 0 0 0 2.616 3.151l1.509-1.313a83.787 83.787 0 0 1-2.556-3.08l-1.569 1.242Zm5.379 6.176a83.785 83.785 0 0 0 2.906 2.888l1.375-1.453a81.222 81.222 0 0 1-2.837-2.82l-1.444 1.385Zm5.952 5.63a80.972 80.972 0 0 0 3.183 2.587l1.221-1.584a78.657 78.657 0 0 1-3.103-2.522l-1.301 1.519Zm6.495 5.007a78.176 78.176 0 0 0 3.432 2.245l1.05-1.702a76.582 76.582 0 0 1-3.344-2.187l-1.138 1.644Zm6.975 4.304a78.07 78.07 0 0 0 3.647 1.87l.865-1.803a75.517 75.517 0 0 1-3.553-1.822l-.959 1.755Zm7.39 3.545a78.376 78.376 0 0 0 3.828 1.476l.67-1.885a76.17 76.17 0 0 1-3.73-1.438l-.768 1.847Zm7.733 2.751c1.296.386 2.614.743 3.953 1.069l.473-1.944a77.182 77.182 0 0 1-3.855-1.042l-.571 1.917Zm7.95 1.936c.673.129 1.351.25 2.034.363l.327-1.973a87.218 87.218 0 0 1-1.985-.354l-.376 1.964Zm2.034.363 2.03.336.326-1.973-2.029-.336-.327 1.973Zm6.022.994 3.986.652.321-1.974c-1.274-.207-2.6-.424-3.983-.652l-.324 1.974Zm7.981 1.297c1.406.226 2.742.438 4.014.637l.309-1.976c-1.269-.199-2.602-.41-4.007-.635l-.316 1.974Zm8.009 1.253a454.6 454.6 0 0 0 4.005.59l.283-1.98c-1.25-.178-2.575-.374-3.989-.587l-.299 1.977Zm8.027 1.141c1.443.187 2.783.349 4.049.488l.218-1.988a208.178 208.178 0 0 1-4.009-.484l-.258 1.984Zm8.097.879c1.404.114 2.744.201 4.074.265l.097-1.997a121.594 121.594 0 0 1-4.007-.262l-.164 1.994Zm8.147.401c1.298.025 2.636.037 4.06.04l.005-2a231.467 231.467 0 0 1-4.026-.04l-.039 2Zm8.119.034 4.041-.019-.008-2-4.041.019.008 2Zm8.091-.032 2.032-.001v-2l-2.036.001.004 2Z" fill="#203040"/><g clip-path="url(#a)"><path d="M64.184 64.1a.433.433 0 0 0-.174.61.493.493 0 0 0 .65.164.433.433 0 0 0 .174-.61.494.494 0 0 0-.65-.164ZM78.204 56.498a.433.433 0 0 0-.174.611.493.493 0 0 0 .65.164.433.433 0 0 0 .175-.61.494.494 0 0 0-.65-.164Z" fill="#FFC238"/><path d="M80.426 54.66c-.4-1.07-1.202-1.804-2.257-2.07a3.3 3.3 0 0 0-2.428.314c-.941.51-1.758 1.474-2.326 2.8-1.479-1.46-4.304-3.599-6.352-3.018l-.266-.432a.493.493 0 0 0-.65-.164.433.433 0 0 0-.174.61l.266.433c-1.563 1.378-.998 4.75-.394 6.674-1.506-.2-2.803-.018-3.745.493-.75.407-1.276 1.022-1.502 1.817-.283.991-.006 2.01.78 2.87.799.875 2.097 1.558 3.752 1.974 2.19.55 4.919.636 6.795.24.047.436.192.859.43 1.246.711 1.157 2.096 1.726 3.424 1.524.208 1.262-.422 2.528-1.63 3.183a.433.433 0 0 0-.174.61.493.493 0 0 0 .65.164c1.597-.865 2.408-2.562 2.07-4.23a3.407 3.407 0 0 0 .417-.226c1.369 1.11 3.34 1.298 4.936.432a.433.433 0 0 0 .174-.61.493.493 0 0 0-.65-.164 3.496 3.496 0 0 1-3.75-.267c.85-.978 1.017-2.389.306-3.546a3.195 3.195 0 0 0-.934-.973c1.954-1.991 4.364-6.66 3.232-9.685Zm-7.79 7.984a13.513 13.513 0 0 0-1.788-1.124l1.645-.892c-.006.73.042 1.409.142 2.016Zm-.097-3.074-2.69 1.458a17.067 17.067 0 0 0-2.254-.843l5.293-2.87a14.53 14.53 0 0 0-.35 2.255Zm-6.253-2.083 4.769-2.585c.583.423 1.17.923 1.704 1.452l-5.986 3.245a13.416 13.416 0 0 1-.487-2.112Zm.813-3.848c.647-.35 1.779-.09 3.098.696l-4.005 2.171c-.064-1.465.26-2.516.907-2.867Zm-5 10.765c-.582-.637-.784-1.348-.582-2.055.187-.656.682-1.157 1.432-1.447 1.968-.763 4.792.13 6.704 1.032 1.744.823 3.099 1.813 3.624 2.647v.001l.023.037.001.002c.173.287.231.535.174.737-.059.205-.254.4-.565.568a3.618 3.618 0 0 1-.66.267c-1.668.512-4.623.47-6.873-.096-1.47-.37-2.603-.955-3.277-1.692Zm14.333 4.414c-1.137.617-2.596.25-3.252-.818a2.12 2.12 0 0 1-.32-1.064c.854-.317 1.37-.77 1.535-1.347l.015-.06c.02.007.041.013.062.018.615.155 1.29-.039 2.01-.574.338.194.62.463.821.791.657 1.068.266 2.438-.871 3.054Zm-.33-4.713c-.201.17-.394.305-.576.403-.311.169-.588.23-.807.175-.215-.054-.415-.225-.593-.51l-.001-.001a1.555 1.555 0 0 0-.023-.037v-.002c-.508-.843-.743-2.44-.63-4.27.125-1.998.71-4.745 2.4-5.968.643-.464 1.352-.617 2.05-.44.754.189 1.308.708 1.605 1.501 1.032 2.756-1.534 7.554-3.425 9.15Z" fill="#516171"/><path d="M77.465 58.468c-.448 1.314-1.233 2.735-2.049 3.71a.43.43 0 0 0 .08.627.497.497 0 0 0 .669-.075c.881-1.052 1.727-2.58 2.207-3.99a.442.442 0 0 0-.308-.561.483.483 0 0 0-.6.29ZM70.837 64.659c-1.308.187-3.02.12-4.467-.175-.256-.053-.51.1-.566.342-.056.24.107.479.364.531 1.553.317 3.398.388 4.813.186.26-.038.438-.266.398-.51-.04-.244-.282-.412-.542-.374Z" fill="#FFC238"/></g><defs><clipPath id="a"><path fill="#fff" transform="matrix(-.87911 .47662 -.52375 -.85187 88.912 66.182)" d="M0 0h24.016v23.274H0z"/></clipPath></defs></svg>
