<svg width="51" height="152" fill="none" xmlns="http://www.w3.org/2000/svg">
  <path opacity=".5" d="M4.41.465a1 1 0 1 0-1.689 1.07l1.69-1.07ZM12 79l-.947.322L12 79Zm-9.403 72.247a1 1 0 0 0 1.216.722l8.721-2.222a1 1 0 0 0-.494-1.938l-7.752 1.975-1.975-7.752a1 1 0 1 0-1.938.494l2.222 8.721ZM3.837 3.32A1 1 0 0 0 5.54 2.27L3.837 3.32Zm3.826 2.494a1 1 0 1 0-1.729 1.004l1.73-1.004Zm.26 4.562a1 1 0 1 0 1.763-.946l-1.762.946Zm3.654 2.762a1 1 0 0 0-1.802.868l1.802-.868Zm-.145 4.572a1 1 0 0 0 1.85-.76l-1.85.76Zm3.287 3.149a1 1 0 0 0-1.905.61l1.905-.61Zm-.89 4.496a1 1 0 0 0 1.963-.387l-1.963.387Zm2.468 3.846a1 1 0 0 0-1.999.07l1.999-.07Zm-2.236 3.97a1 1 0 1 0 1.974.318l-1.974-.318Zm.909 4.462a1 1 0 0 0-1.89-.655l1.89.654Zm-3.402 3.079a1 1 0 1 0 1.829.81l-1.829-.81Zm.178 4.56a1 1 0 0 0-1.845-.772l1.845.772Zm-3.295 3.174a1 1 0 1 0 1.91.59l-1.91-.59Zm.978 4.459a1 1 0 0 0-1.97-.341l1.97.34ZM7.003 56.78a1 1 0 0 0 1.998.092l-1.998-.092Zm2.033 4.097a1 1 0 0 0-1.997.12l1.997-.12Zm-1.561 4.295a1 1 0 1 0 1.979-.288l-1.98.288Zm2.699 3.678a1 1 0 0 0-1.955.42l1.955-.42Zm-.967 4.466a1 1 0 0 0 1.93-.525l-1.93.525Zm3.085 3.377a1 1 0 1 0-1.905.608l1.905-.608Zm-.607 4.579a1 1 0 0 0 1.912-.59l-1.912.59Zm3.034 3.452a1 1 0 0 0-1.941.48l1.94-.48Zm-1.072 4.467a1 1 0 0 0 1.965-.372l-1.965.372Zm2.632 3.77a1 1 0 0 0-1.983.264l1.983-.264Zm-1.55 4.332a1 1 0 0 0 1.993-.159l-1.994.159Zm2.218 4.026a1 1 0 1 0-2 .057l2-.057Zm-1.985 4.143a1 1 0 0 0 2 .042l-2-.042Zm1.811 4.229a1 1 0 1 0-1.995-.137l1.995.137Zm-2.368 3.943a1 1 0 0 0 1.987.227l-1.987-.227Zm1.421 4.365a1 1 0 1 0-1.975-.313l1.975.313Zm-2.704 3.728a1 1 0 0 0 1.96.396l-1.96-.396Zm1.05 4.47a1 1 0 1 0-1.942-.474l1.943.474Zm-2.996 3.498a1 1 0 0 0 1.923.55l-1.923-.55Zm.698 4.539a1 1 0 1 0-1.9-.623l1.9.623Zm-3.25 3.245a1 1 0 1 0 1.874.695l-1.875-.695Zm.35 4.583a.999.999 0 1 0-1.848-.766l1.847.766Zm-3.502 3.006a1 1 0 1 0 1.815.841l-1.815-.841Zm-.034 4.598a1 1 0 0 0-1.771-.929l1.771.929ZM2.721 1.535c.384.606.756 1.2 1.116 1.785L5.54 2.27C5.174 1.68 4.8 1.077 4.411.465l-1.69 1.07Zm3.213 5.283c.717 1.235 1.38 2.42 1.99 3.558l1.762-.946a123.052 123.052 0 0 0-2.023-3.616L5.934 6.818Zm3.84 7.188a69.344 69.344 0 0 1 1.658 3.704l1.85-.76a71.281 71.281 0 0 0-1.705-3.812l-1.802.868Zm3.04 7.462a34.934 34.934 0 0 1 1.015 3.887l1.963-.387a36.949 36.949 0 0 0-1.073-4.109l-1.905.61Zm1.484 7.804a19.908 19.908 0 0 1-.237 3.9l1.974.317c.216-1.335.316-2.752.262-4.288l-1.999.07Zm-1.218 7.706c-.435 1.255-.954 2.476-1.512 3.734l1.829.81c.563-1.27 1.11-2.553 1.573-3.89l-1.89-.654ZM9.9 44.5a43.237 43.237 0 0 0-1.45 3.946l1.912.59a41.25 41.25 0 0 1 1.384-3.764L9.901 44.5ZM7.46 52.564a33.79 33.79 0 0 0-.456 4.216l1.998.092c.066-1.424.216-2.74.428-3.967l-1.97-.341Zm-.42 8.433c.079 1.314.221 2.703.436 4.175l1.979-.288a47.393 47.393 0 0 1-.418-4.007l-1.997.12Zm1.18 8.273c.277 1.29.605 2.636.988 4.046l1.93-.525a75.686 75.686 0 0 1-.963-3.941l-1.955.42Zm2.168 8.03c.21.662.433 1.335.666 2.022l1.894-.644c-.23-.675-.448-1.337-.655-1.985l-1.905.608Zm.666 2.022c.221.65.432 1.3.632 1.95l1.912-.59a73.355 73.355 0 0 0-.65-2.004l-1.894.644Zm1.724 5.882c.33 1.334.62 2.664.87 3.987l1.965-.372a75.284 75.284 0 0 0-.893-4.095l-1.941.48Zm1.52 8.022a77.13 77.13 0 0 1 .431 4.067l1.994-.159a79.165 79.165 0 0 0-.443-4.173l-1.983.264Zm.65 8.15a82.95 82.95 0 0 1 .015 4.086l2 .042a85.001 85.001 0 0 0-.015-4.185l-2 .057Zm-.169 8.178a90.262 90.262 0 0 1-.373 4.08l1.987.227a92.24 92.24 0 0 0 .381-4.17l-1.995-.137Zm-.927 8.132a97.888 97.888 0 0 1-.73 4.041l1.961.396c.272-1.343.521-2.719.744-4.124l-1.975-.313Zm-1.621 8.037a105.4 105.4 0 0 1-1.054 3.972l1.923.55a106.84 106.84 0 0 0 1.074-4.048l-1.943-.474Zm-2.256 7.888a108.546 108.546 0 0 1-1.35 3.868l1.874.695c.46-1.242.923-2.558 1.376-3.94l-1.9-.623Zm-2.848 7.685a100.837 100.837 0 0 1-1.654 3.772l1.815.841a102.44 102.44 0 0 0 1.686-3.847l-1.847-.766Zm-3.46 7.441a55.102 55.102 0 0 1-.71 1.315l-.188.332a3.809 3.809 0 0 1-.048.081l-.011.02-.003.004v.001-.001l.86.511.86.511v-.001l.002-.003a.032.032 0 0 0 .004-.006l.014-.025.054-.092c.046-.081.114-.199.201-.355.174-.31.425-.768.737-1.363l-1.771-.929Z" fill="#203040"/>
  <g clip-path="url(#a)">
    <path d="M28.646 73.516a.493.493 0 0 0-.156.637c.118.223.377.3.58.17a.493.493 0 0 0 .156-.637c-.117-.223-.377-.3-.58-.17ZM41.148 65.584a.493.493 0 0 0-.156.637c.117.223.377.3.58.17a.493.493 0 0 0 .156-.637c-.117-.223-.377-.3-.58-.17Z" fill="#FFC238"/>
    <path d="M43.129 63.664c-.357-1.115-1.072-1.882-2.012-2.159-.756-.222-1.496-.097-2.165.327-.84.533-1.568 1.539-2.075 2.921-1.319-1.523-3.838-3.754-5.664-3.148l-.237-.451c-.117-.223-.377-.3-.58-.17a.493.493 0 0 0-.155.636l.237.452c-1.394 1.437-.889 4.957-.35 6.964-1.344-.21-2.5-.02-3.34.514-.67.424-1.138 1.066-1.34 1.896-.252 1.034-.005 2.098.695 2.995.713.913 1.87 1.625 3.347 2.06 1.952.575 4.385.663 6.058.25.042.455.171.896.384 1.3.634 1.208 1.87 1.802 3.053 1.59.186 1.317-.376 2.639-1.453 3.322a.493.493 0 0 0-.156.637c.118.224.377.3.58.171 1.424-.903 2.147-2.674 1.845-4.414a2.897 2.897 0 0 0 .372-.236c1.221 1.157 2.978 1.354 4.402.45a.493.493 0 0 0 .155-.636c-.117-.224-.377-.3-.58-.171-1.077.683-2.399.557-3.344-.278.758-1.021.908-2.493.274-3.7a3.167 3.167 0 0 0-.833-1.016c1.742-2.078 3.891-6.949 2.882-10.106Zm-6.947 8.332a11.954 11.954 0 0 0-1.594-1.173l1.467-.93c-.006.76.038 1.47.127 2.103Zm-.086-3.207-2.398 1.521a13.904 13.904 0 0 0-2.01-.88l4.72-2.994a17.561 17.561 0 0 0-.312 2.353Zm-5.576-2.174 4.253-2.698c.52.442 1.043.964 1.519 1.515l-5.337 3.386a16.043 16.043 0 0 1-.435-2.203Zm.726-4.016c.577-.366 1.585-.093 2.762.727l-3.571 2.265c-.058-1.53.231-2.625.808-2.992Zm-4.459 11.234c-.52-.665-.699-1.407-.519-2.145.167-.685.608-1.207 1.276-1.51 1.756-.795 4.274.137 5.98 1.078 1.554.858 2.762 1.89 3.23 2.76v.003l.02.038.002.002c.154.3.206.558.154.769-.052.214-.226.417-.503.593-.162.103-.36.197-.588.279-1.488.533-4.123.49-6.13-.1-1.31-.386-2.32-.997-2.922-1.767Zm12.78 4.606c-1.013.643-2.314.26-2.9-.854a2.493 2.493 0 0 1-.284-1.11c.761-.331 1.221-.803 1.368-1.406.005-.02.01-.041.013-.062.019.006.037.013.056.018.548.162 1.15-.04 1.792-.599.302.202.552.484.732.826.586 1.114.237 2.544-.777 3.187Zm-.294-4.918a3.14 3.14 0 0 1-.513.42c-.278.176-.525.24-.72.183-.192-.056-.37-.235-.529-.532v-.002a1.714 1.714 0 0 0-.02-.038l-.002-.002c-.452-.88-.661-2.546-.56-4.455.11-2.085.632-4.953 2.14-6.228.572-.485 1.205-.644 1.828-.46.671.198 1.166.74 1.43 1.567.92 2.876-1.367 7.882-3.054 9.547Z" fill="#516171"/>
    <path d="M40.488 67.639c-.399 1.371-1.099 2.854-1.826 3.87a.498.498 0 0 0 .07.656.4.4 0 0 0 .597-.079c.786-1.098 1.54-2.693 1.968-4.163.072-.245-.052-.508-.275-.586-.224-.079-.462.057-.534.302ZM34.579 74.098c-1.167.196-2.693.126-3.983-.182-.23-.055-.456.104-.506.356-.05.252.096.5.325.555 1.386.331 3.03.405 4.291.194.232-.04.392-.277.356-.532-.035-.255-.252-.43-.483-.39Z" fill="#FFC238"/>
  </g>
  <defs>
    <clipPath id="a">
      <path fill="#fff" transform="matrix(-.84439 .53573 -.4651 -.88526 50.696 75.689)" d="M0 0h22.296v23.37H0z"/>
    </clipPath>
  </defs>
</svg>