<svg width="219" height="68" fill="none" xmlns="http://www.w3.org/2000/svg">
  <path opacity=".5" d="M.597 39.519a1 1 0 0 0 .806 1.83l-.806-1.83ZM113.8 59.129l.744.668-.744-.668Zm103.091-17.7a1 1 0 0 0 1.103-.886l.983-8.946a1 1 0 0 0-1.988-.218l-.874 7.952-7.952-.873a1 1 0 1 0-.218 1.988l8.946.982ZM3.226 40.57a1 1 0 1 0-.767-1.847l.767 1.847Zm2.884-3.272a1 1 0 1 0 .686 1.879l-.686-1.879Zm4.368.632a1 1 0 0 0-.595-1.91l.595 1.91Zm3.187-2.984a1 1 0 0 0 .496 1.938l-.496-1.938Zm4.242 1.089a1 1 0 0 0-.386-1.962l.386 1.962Zm3.543-2.613a1 1 0 1 0 .266 1.982l-.266-1.982Zm4.078 1.594a1 1 0 0 0-.137-1.995l.137 1.995Zm3.815-2.134a1 1 0 1 0 .002 2l-.002-2Zm3.83 2.13a1 1 0 0 0 .139-1.995l-.14 1.996Zm4.1-1.575a1 1 0 0 0-.282 1.98l.283-1.98Zm3.492 2.657a1 1 0 1 0 .423-1.955l-.423 1.955Zm4.273-.98a1 1 0 0 0-.558 1.921l.558-1.92Zm3.087 3.114a1 1 0 1 0 .684-1.879l-.684 1.88Zm4.364-.407a1 1 0 1 0-.799 1.834l.8-1.834Zm2.682 3.471a1 1 0 1 0 .9-1.785l-.9 1.785Zm4.383.085a1 1 0 1 0-.989 1.738l.99-1.738Zm2.324 3.721a1 1 0 0 0 1.063-1.694l-1.063 1.694Zm4.361.461a1 1 0 0 0-1.123 1.655l1.123-1.655Zm2.053 3.879a1 1 0 0 0 1.169-1.623l-1.17 1.623Zm4.33.703a1 1 0 0 0-1.201 1.6l1.2-1.6Zm1.902 3.957a1 1 0 1 0 1.216-1.587l-1.216 1.587Zm4.316.792a1 1 0 0 0-1.216 1.588l1.216-1.588Zm1.914 3.954a1 1 0 0 0 1.193-1.605l-1.193 1.605Zm4.337.66a1 1 0 1 0-1.14 1.644l1.14-1.644Zm2.17 3.814a1 1 0 1 0 1.044-1.706l-1.044 1.706Zm4.365.135a1 1 0 0 0-.879 1.796l.88-1.796Zm2.886 3.324a1 1 0 1 0 .602-1.907l-.602 1.907Zm4.192-1.172a1 1 0 1 0-.171 1.993l.171-1.993Zm3.981 1.791a1 1 0 1 0-.371-1.965l.371 1.965Zm3.084-3.117a1 1 0 0 0 .866 1.803l-.866-1.802Zm4.325-.327a1 1 0 0 0-1.203-1.597l1.203 1.597Zm1.616-4.068a1 1 0 0 0 1.413 1.415l-1.413-1.415Zm4.21-1.605a1 1 0 0 0-1.475-1.35l1.475 1.35Zm1.283-4.3a1 1 0 0 0 1.446 1.382l-1.446-1.382Zm4.222-1.46a1 1 0 0 0-1.415-1.413l1.415 1.414Zm1.481-4.241a1 1 0 1 0 1.38 1.448l-1.38-1.448Zm4.291-1.256a1 1 0 1 0-1.341-1.483l1.341 1.483Zm1.691-4.149a1 1 0 0 0 1.299 1.521l-1.299-1.52Zm4.372-1.023a1 1 0 1 0-1.252-1.56l1.252 1.56Zm1.913-4.015a1 1 0 1 0 1.199 1.6l-1.199-1.6Zm4.453-.748a1 1 0 0 0-1.141-1.643l1.141 1.643Zm2.211-3.875a1 1 0 1 0 1.075 1.687l-1.075-1.687Zm4.458-.372a1 1 0 0 0-1.002-1.73l1.002 1.73Zm2.572-3.693a1 1 0 0 0 .921 1.775l-.921-1.775Zm4.472.044a1 1 0 0 0-.83-1.82l.83 1.82Zm2.889-3.397a1 1 0 0 0 .73 1.863l-.73-1.863Zm4.454.528a1 1 0 0 0-.618-1.902l.618 1.902Zm3.305-3.04a1 1 0 0 0 .494 1.938l-.494-1.938Zm4.346 1.091a1 1 0 1 0-.361-1.966l.361 1.966Zm3.677-2.56a1 1 0 1 0 .218 1.989l-.218-1.988Zm4.139 1.707a1 1 0 1 0-.067-1.999l.067 1.999Zm4.019-1.977a1 1 0 0 0-.09 1.998l.09-1.998Zm3.823 2.33a1 1 0 0 0 .249-1.985l-.249 1.985Zm4.279-1.315a1 1 0 1 0-.407 1.958l.407-1.958Zm3.397 2.908a1 1 0 1 0 .561-1.92l-.561 1.92Zm4.444-.617a1 1 0 1 0-.709 1.87l.709-1.87Zm2.918 3.409a1 1 0 1 0 .85-1.81l-.85 1.81Zm4.472.056a1 1 0 0 0-.982 1.743l.982-1.743Zm2.388 3.804a1 1 0 0 0 1.104-1.668l-1.104 1.668Zm4.41.692a1 1 0 0 0-1.219 1.586l1.219-1.586Zm1.816 4.096a1 1 0 1 0 1.33-1.493l-1.33 1.493Zm4.296 1.37a1 1 0 1 0-1.45 1.377l1.45-1.377ZM1.403 41.349c.612-.269 1.22-.528 1.823-.779l-.767-1.847c-.617.256-1.237.521-1.862.796l.806 1.83Zm5.393-2.172a81.035 81.035 0 0 1 3.682-1.247l-.595-1.91c-1.24.387-2.498.812-3.773 1.278l.686 1.879Zm7.365-2.293a68.388 68.388 0 0 1 3.746-.849l-.386-1.962c-1.266.249-2.551.54-3.856.873l.496 1.938Zm7.555-1.48a59.287 59.287 0 0 1 3.812-.388l-.137-1.995a61.273 61.273 0 0 0-3.941.4l.266 1.983Zm7.629-.522c1.3-.001 2.576.043 3.828.13l.139-1.995a56.28 56.28 0 0 0-3.969-.135l.002 2Zm7.647.535c1.282.183 2.54.41 3.773.677l.423-1.955a55.572 55.572 0 0 0-3.914-.702l-.282 1.98Zm7.488 1.618a57.8 57.8 0 0 1 3.645 1.193l.684-1.879a59.744 59.744 0 0 0-3.771-1.234l-.558 1.92Zm7.21 2.62a68.392 68.392 0 0 1 3.48 1.637l.902-1.785a70.29 70.29 0 0 0-3.583-1.685l-.799 1.833Zm6.876 3.46c1.125.64 2.229 1.303 3.312 1.983l1.063-1.694a91.76 91.76 0 0 0-3.387-2.027l-.989 1.738Zm6.55 4.1c1.078.73 2.136 1.474 3.176 2.222l1.169-1.622a140.834 140.834 0 0 0-3.222-2.256l-1.123 1.655Zm6.305 4.526c1.052.79 2.085 1.578 3.103 2.357l1.216-1.587c-1.02-.782-2.059-1.574-3.119-2.37l-1.2 1.6Zm6.203 4.737c1.059.81 2.102 1.602 3.13 2.366l1.193-1.605a271.152 271.152 0 0 1-3.107-2.35l-1.216 1.589Zm6.327 4.67a69.269 69.269 0 0 0 3.31 2.17l1.044-1.706a67.223 67.223 0 0 1-3.214-2.108l-1.14 1.644Zm6.796 4.101a27.192 27.192 0 0 0 3.765 1.528l.602-1.907a25.198 25.198 0 0 1-3.488-1.417l-.879 1.796Zm7.786 2.349c1.379.119 2.762.061 4.152-.202l-.371-1.965a13.201 13.201 0 0 1-3.61.174l-.171 1.993Zm8.102-1.516a20.563 20.563 0 0 0 3.459-2.13l-1.203-1.597a18.59 18.59 0 0 1-3.122 1.925l.866 1.802Zm6.488-4.783c.473-.472.946-.972 1.421-1.502l-1.488-1.335c-.453.504-.901.978-1.346 1.422l1.413 1.415Zm1.421-1.502c.46-.512.919-1.018 1.376-1.518l-1.475-1.35c-.462.504-.925 1.015-1.389 1.533l1.488 1.335Zm4.105-4.436c.931-.974 1.856-1.921 2.776-2.841l-1.415-1.414c-.93.93-1.866 1.888-2.807 2.873l1.446 1.382Zm5.637-5.635a152.65 152.65 0 0 1 2.911-2.704l-1.341-1.483a154.32 154.32 0 0 0-2.95 2.739l1.38 1.448Zm5.901-5.332a129.274 129.274 0 0 1 3.073-2.544l-1.252-1.56c-1.032.828-2.073 1.69-3.12 2.583l1.299 1.521Zm6.185-4.958c1.094-.82 2.179-1.603 3.254-2.349l-1.141-1.643c-1.095.76-2.199 1.557-3.312 2.391l1.199 1.6Zm6.54-4.537a93.15 93.15 0 0 1 3.383-2.06l-1.002-1.73a94.024 94.024 0 0 0-3.456 2.103l1.075 1.687Zm6.876-3.977a78.25 78.25 0 0 1 3.551-1.73l-.83-1.82a80.277 80.277 0 0 0-3.642 1.775l.921 1.775Zm7.17-3.265c1.259-.494 2.5-.938 3.724-1.335l-.618-1.902a68.47 68.47 0 0 0-3.836 1.374l.73 1.863Zm7.523-2.438a57.682 57.682 0 0 1 3.852-.846l-.361-1.966c-1.307.24-2.636.53-3.985.875l.494 1.938Zm7.747-1.417a51.854 51.854 0 0 1 3.921-.282l-.067-1.999c-1.33.045-2.688.14-4.072.293l.218 1.988Zm7.85-.26c1.338.059 2.643.172 3.913.33l.249-1.984a51.239 51.239 0 0 0-4.072-.345l-.09 1.998Zm7.785.974a49.27 49.27 0 0 1 3.804.95l.561-1.92a51.352 51.352 0 0 0-3.958-.988l-.407 1.958Zm7.539 2.203c1.262.48 2.471.996 3.627 1.538l.85-1.81c-1.2-.563-2.456-1.1-3.768-1.598l-.709 1.87Zm7.117 3.338a54.915 54.915 0 0 1 3.37 2.06l1.104-1.667a57.075 57.075 0 0 0-3.492-2.136l-.982 1.743Zm6.561 4.34a54.14 54.14 0 0 1 3.035 2.51l1.33-1.494a56.72 56.72 0 0 0-3.146-2.603l-1.219 1.586Zm5.881 5.256a33.144 33.144 0 0 1 1.188 1.32l.056.069.013.015.002.003.78-.626.78-.626h-.001l-.002-.003-.005-.007-.019-.023-.068-.082a28.503 28.503 0 0 0-1.274-1.417l-1.45 1.377Z" fill="#203040"/>
  <g clip-path="url(#a)">
    <path d="M147.559 22.05a.494.494 0 0 0 .638.155c.223-.117.299-.377.171-.58a.494.494 0 0 0-.638-.155c-.223.117-.299.377-.171.58ZM139.628 9.548a.492.492 0 0 0 .637.155c.223-.117.3-.376.171-.58a.494.494 0 0 0-.638-.155c-.223.117-.299.377-.17.58Z" fill="#FFC238"/>
    <path d="M137.708 7.567c-1.115.357-1.882 1.072-2.159 2.012-.222.756-.097 1.496.327 2.165.533.84 1.539 1.568 2.921 2.075-1.523 1.318-3.754 3.837-3.148 5.663l-.451.238c-.223.117-.3.377-.171.58a.492.492 0 0 0 .637.155l.452-.237c1.437 1.393 4.957.889 6.964.35-.209 1.344-.019 2.5.514 3.34.424.67 1.066 1.138 1.896 1.34 1.034.252 2.098.005 2.995-.695.913-.713 1.625-1.87 2.06-3.347.575-1.952.663-4.385.251-6.059a3.483 3.483 0 0 0 1.3-.383c1.207-.634 1.8-1.87 1.589-3.053 1.317-.186 2.639.376 3.322 1.453a.492.492 0 0 0 .637.155c.223-.117.3-.376.171-.58-.903-1.423-2.674-2.147-4.414-1.845a2.69 2.69 0 0 0-.236-.372c1.157-1.22 1.354-2.977.451-4.401a.493.493 0 0 0-.638-.155c-.223.117-.299.377-.17.58.683 1.077.557 2.399-.278 3.344-1.021-.758-2.493-.908-3.701-.274a3.175 3.175 0 0 0-1.015.833c-2.078-1.742-6.949-3.891-10.106-2.882Zm8.332 6.947c-.402.454-.798.991-1.173 1.594l-.931-1.467c.761.006 1.471-.038 2.104-.127Zm-3.207.086 1.521 2.398a13.977 13.977 0 0 0-.88 2.01l-2.994-4.72c.734.151 1.535.258 2.353.312Zm-2.174 5.575-2.698-4.252c.442-.52.964-1.043 1.515-1.519l3.386 5.337c-.728.197-1.487.347-2.203.434Zm-4.016-.725c-.366-.577-.093-1.585.727-2.762l2.265 3.571c-1.529.058-2.626-.232-2.992-.809Zm11.234 4.459c-.666.52-1.407.699-2.145.519-.685-.167-1.207-.608-1.51-1.277-.795-1.755.137-4.273 1.078-5.978.858-1.555 1.89-2.763 2.761-3.23l.002-.002.038-.02h.002c.299-.155.558-.207.769-.156.214.053.417.226.593.504.103.162.197.36.279.588.533 1.488.49 4.123-.101 6.13-.385 1.31-.996 2.32-1.766 2.922Zm4.606-12.78c.643 1.013.26 2.314-.854 2.9-.343.18-.722.276-1.11.284-.331-.761-.803-1.221-1.406-1.368a1.717 1.717 0 0 0-.062-.013c.006-.019.013-.037.018-.056.162-.548-.04-1.15-.599-1.792a2.24 2.24 0 0 1 .826-.732c1.114-.586 2.544-.237 3.187.777Zm-4.918.294c.177.179.317.351.42.513.176.278.241.525.183.72-.057.192-.235.37-.532.529h-.002a3.094 3.094 0 0 1-.038.02l-.002.002c-.88.452-2.546.661-4.455.56-2.085-.11-4.953-.632-6.228-2.14-.485-.572-.644-1.205-.46-1.828.198-.671.739-1.166 1.567-1.43 2.875-.92 7.882 1.367 9.547 3.054Z" fill="#516171"/>
    <path d="M141.683 10.207c1.371.4 2.854 1.1 3.87 1.827a.498.498 0 0 0 .655-.071.399.399 0 0 0-.078-.596c-1.098-.786-2.693-1.54-4.163-1.968-.245-.072-.508.051-.586.275-.079.223.057.462.302.534ZM148.142 16.117c.196 1.167.126 2.693-.182 3.983-.055.23.104.456.356.505.252.05.501-.095.555-.324.331-1.386.405-3.03.194-4.291-.039-.232-.277-.392-.532-.356-.255.035-.429.252-.391.483Z" fill="#FFC238"/>
  </g>
  <defs>
    <clipPath id="a">
      <path fill="#fff" transform="matrix(.53573 .84439 -.88526 .4651 149.732 0)" d="M0 0h22.296v23.37H0z"/>
    </clipPath>
  </defs>
</svg>
