<svg width="139" height="152" fill="none" xmlns="http://www.w3.org/2000/svg">
  <path opacity=".5" d="m54.311 100.549.123-.993-.123.993ZM77.227 48.5l.24-.97-.24.97Zm-63.666 57.805-.973-.232.973.232Zm-6.66 45.402a1 1 0 0 0 1.415 0l6.364-6.364a1 1 0 1 0-1.414-1.414l-5.657 5.657-5.657-5.657a1 1 0 1 0-1.414 1.414l6.364 6.364ZM31.483 2.382a1 1 0 0 0 1.811.849l-1.811-.849Zm.153 4.515a1 1 0 0 0-1.833-.8l1.833.8ZM28.22 9.852a1 1 0 0 0 1.853.754l-1.852-.754Zm.384 4.492a1 1 0 1 0-1.87-.709l1.87.709Zm-3.264 3.109a1 1 0 1 0 1.887.663l-1.887-.663Zm.601 4.469a1 1 0 0 0-1.902-.617l1.902.617Zm-3.108 3.268a1 1 0 0 0 1.918.568l-1.918-.568Zm.827 4.433a1 1 0 0 0-1.932-.517l1.932.517Zm-2.93 3.43a1 1 0 1 0 1.946.463l-1.946-.463Zm1.075 4.38a1 1 0 1 0-1.959-.404l1.96.404Zm-2.718 3.6a1 1 0 0 0 1.97.34l-1.97-.34Zm1.357 4.3a1 1 0 0 0-1.982-.27l1.982.27Zm-2.456 3.783a1 1 0 0 0 1.99.194l-1.99-.194Zm1.689 4.181a1 1 0 1 0-1.997-.106l1.997.106Zm-2.118 3.983a1 1 0 1 0 2 .01l-2-.01Zm2.088 3.997a1 1 0 1 0-1.998.1l1.998-.1Zm-1.667 4.19a1 1 0 1 0 1.987-.224l-1.987.225Zm2.57 3.703a1 1 0 1 0-1.967.365l1.966-.365Zm-1.054 4.383a1 1 0 0 0 1.93-.523l-1.93.523Zm3.134 3.234a1 1 0 1 0-1.873.7l1.873-.7Zm-.228 4.501a1 1 0 1 0 1.79-.89l-1.79.89Zm3.733 2.52a1 1 0 1 0-1.677 1.09l1.677-1.09Zm.794 4.434a1 1 0 1 0 1.533-1.285l-1.533 1.285Zm4.228 1.548a1 1 0 1 0-1.36 1.467l1.36-1.467Zm1.86 4.102a1 1 0 1 0 1.17-1.622l-1.17 1.622Zm4.481.482a1 1 0 1 0-.974 1.747l.974-1.747Zm2.749 3.57a1 1 0 1 0 .785-1.84l-.785 1.84Zm4.481-.468a1 1 0 0 0-.61 1.905l.61-1.905Zm3.358 2.994a1 1 0 0 0 .451-1.949l-.45 1.949Zm4.34-1.197a1 1 0 0 0-.312 1.976l.311-1.975Zm3.774 2.501a1 1 0 1 0 .214-1.988l-.214 1.988Zm4.027-1.641a1 1 0 0 0-.148 1.995l.148-1.995Zm3.84 2.213a1 1 0 1 0 .07-1.999l-.07 1.999Zm3.941-1.948a1 1 0 0 0 .02 2l-.02-2Zm3.963 1.865a1 1 0 1 0-.12-1.996l.12 1.996Zm3.696-2.337a1 1 0 1 0 .238 1.985l-.238-1.985Zm4.159 1.379a1 1 0 1 0-.377-1.964l.377 1.964Zm3.349-2.837a1 1 0 1 0 .54 1.926l-.54-1.926Zm4.354.651a1 1 0 0 0-.732-1.86l.732 1.86Zm2.715-3.459a1 1 0 1 0 .955 1.758l-.955-1.758Zm4.372-.43a1 1 0 1 0-1.202-1.598l1.202 1.599Zm1.57-4.074a1 1 0 1 0 1.459 1.368l-1.459-1.368Zm3.97-1.882a1 1 0 1 0-1.695-1.062l1.695 1.062Zm-.057-4.376a1 1 0 0 0 1.873.7l-1.873-.7Zm2.923-3.266a1 1 0 1 0-1.974-.32l1.974.32Zm-1.716-4.038a1 1 0 0 0 2-.039l-2 .04Zm1.585-4.086a1 1 0 0 0-1.967.36l1.967-.36Zm-2.918-3.281a1 1 0 1 0 1.895-.642l-1.895.642Zm.346-4.374a1 1 0 1 0-1.793.884l1.793-.884Zm-3.675-2.404a1 1 0 1 0 1.672-1.097l-1.672 1.097Zm-.727-4.328a1 1 0 0 0-1.534 1.283l1.534-1.283Zm-4.134-1.49a1 1 0 0 0 1.379-1.448l-1.38 1.449Zm-1.684-4.051a1 1 0 0 0-1.207 1.594l1.207-1.594Zm-4.36-.522a1 1 0 1 0 1.02-1.721l-1.02 1.72Zm-2.56-3.57a1 1 0 1 0-.813 1.828l.813-1.828Zm-4.358.493a1 1 0 1 0 .593-1.91l-.593 1.91Zm-3.364-2.905a1 1 0 0 0-.4 1.96l.4-1.96Zm-4.274 1.342a1 1 0 1 0 .228-1.987l-.228 1.987ZM67.3 46.152a1 1 0 1 0-.04 2l.04-2Zm-3.952 2.114a1 1 0 0 0-.159-1.993l.159 1.993ZM59.1 46.811a1 1 0 0 0 .363 1.967l-.363-1.967Zm-3.44 2.877a1 1 0 0 0-.567-1.918l.566 1.918Zm-4.454-.549a1 1 0 1 0 .76 1.85l-.76-1.85Zm-2.788 3.519a1 1 0 0 0-.938-1.767l.938 1.767Zm-4.472.328a1 1 0 0 0 1.097 1.672l-1.097-1.672ZM41.85 56.96a1 1 0 1 0-1.237-1.572l1.237 1.572Zm-4.35 1.084a1 1 0 1 0 1.356 1.47l-1.356-1.47Zm-1.45 4.252a1 1 0 0 0-1.457-1.37l1.457 1.37Zm-4.154 1.694a1 1 0 1 0 1.542 1.273l-1.542-1.273Zm-.886 4.4a1 1 0 0 0-1.614-1.18l1.614 1.18Zm-3.93 2.175a1 1 0 1 0 1.675 1.093l-1.675-1.093Zm-.41 4.47a1 1 0 0 0-1.727-1.01l1.727 1.01Zm-3.697 2.542a1 1 0 1 0 1.77.932l-1.77-.931Zm-.01 4.491a1 1 0 1 0-1.806-.858l1.807.858Zm-3.476 2.844a1 1 0 0 0 1.838.788l-1.838-.788Zm.332 4.481a1 1 0 1 0-1.865-.722l1.865.722Zm-3.264 3.078a1 1 0 0 0 1.888.66l-1.888-.66Zm.631 4.443a1 1 0 1 0-1.907-.6l1.907.6Zm-3.066 3.278a1 1 0 0 0 1.924.545l-1.924-.545Zm.892 4.401a1 1 0 1 0-1.94-.491l1.94.491Zm-2.866 3.336a1 1 0 0 0 1.946.463l-1.946-.463Zm1.078 4.129a1 1 0 0 0-1.947-.459l1.947.459Zm-2.806 3.216a1 1 0 0 0 1.949.451l-1.949-.451Zm1.108 4.128a1 1 0 1 0-1.951-.438l1.951.438Zm-2.76 3.25a1 1 0 1 0 1.956.417l-1.956-.417Zm1.206 4.105a1 1 0 0 0-1.964-.376l1.964.376Zm-2.618 3.374a1 1 0 0 0 1.976.305l-1.976-.305Zm1.51 3.989a1 1 0 0 0-1.99-.191l1.99.191Zm-2.236 3.632a1 1 0 1 0 1.999.07l-1.999-.07Zm1.94 3.813a1 1 0 1 0-2-.003l2 .003Zm-1.984 3.774a1 1 0 0 0 2-.013l-2 .013Zm2.022 3.764a1 1 0 1 0-2 .006l2-.006ZM32.35.563c-.289.595-.579 1.201-.868 1.82l1.811.848c.286-.61.571-1.208.856-1.794l-1.8-.874Zm-2.548 5.534a162.547 162.547 0 0 0-1.582 3.755l1.852.754a160.555 160.555 0 0 1 1.563-3.71l-1.833-.8Zm-3.069 7.538c-.474 1.25-.94 2.524-1.394 3.818l1.887.663c.45-1.278.91-2.537 1.377-3.772l-1.87-.709Zm-2.695 7.67c-.415 1.28-.818 2.576-1.206 3.885l1.918.568c.383-1.292.78-2.572 1.19-3.836l-1.902-.617Zm-2.31 7.801c-.35 1.307-.684 2.623-.999 3.947l1.946.463c.31-1.305.64-2.603.984-3.892l-1.932-.518Zm-1.883 7.922a125.496 125.496 0 0 0-.76 4.004l1.971.34c.227-1.314.477-2.628.748-3.94l-1.959-.404Zm-1.384 8.034a104.687 104.687 0 0 0-.474 4.054l1.99.194c.128-1.322.284-2.648.466-3.977l-1.982-.27Zm-.782 8.129a84.211 84.211 0 0 0-.121 4.09l2 .009a82.24 82.24 0 0 1 .118-3.992l-1.997-.107Zm-.03 8.186c.068 1.378.178 2.743.33 4.09l1.987-.224a63.834 63.834 0 0 1-.32-3.966l-1.998.1Zm.933 8.158c.253 1.363.556 2.704.913 4.018l1.93-.523a48.745 48.745 0 0 1-.877-3.86l-1.966.365Zm2.174 7.951a39.845 39.845 0 0 0 1.645 3.802l1.79-.89a37.889 37.889 0 0 1-1.562-3.611l-1.873.7Zm3.701 7.412a34.059 34.059 0 0 0 2.471 3.344l1.533-1.285a32.074 32.074 0 0 1-2.326-3.148l-1.678 1.089Zm5.34 6.359c1.001.93 2.074 1.809 3.219 2.635l1.17-1.622a31.83 31.83 0 0 1-3.03-2.48l-1.36 1.467Zm6.726 4.864a39.281 39.281 0 0 0 3.723 1.822l.785-1.84a37.302 37.302 0 0 1-3.534-1.729l-.974 1.747Zm7.594 3.26c1.27.406 2.592.77 3.968 1.089l.451-1.949a48.163 48.163 0 0 1-3.809-1.045l-.61 1.905Zm7.996 1.868c.68.107 1.371.205 2.075.292l.246-1.985a61.566 61.566 0 0 1-2.01-.282l-.311 1.975Zm2.075.292c.678.084 1.348.162 2.01.233l.215-1.988a123.1 123.1 0 0 1-1.979-.23l-.246 1.985Zm5.89.587c1.366.101 2.695.173 3.988.218l.07-1.999a98.565 98.565 0 0 1-3.91-.214l-.148 1.995Zm7.948.27a77.555 77.555 0 0 0 3.944-.135l-.12-1.996a75.775 75.775 0 0 1-3.843.131l.02 2Zm7.878-.487a56.454 56.454 0 0 0 3.92-.606l-.376-1.964a54.69 54.69 0 0 1-3.782.585l.238 1.985Zm7.81-1.517a39.652 39.652 0 0 0 3.814-1.275l-.732-1.86c-1.132.445-2.338.85-3.622 1.21l.54 1.925Zm7.484-2.976a27.521 27.521 0 0 0 3.417-2.187l-1.202-1.599c-.959.722-2.014 1.4-3.17 2.028l.955 1.758Zm6.446-4.894a21.188 21.188 0 0 0 2.511-3.25l-1.695-1.062a19.195 19.195 0 0 1-2.275 2.944l1.459 1.368Zm4.327-6.925c.483-1.291.83-2.618 1.05-3.967l-1.974-.32a18.898 18.898 0 0 1-.949 3.586l1.873.7Zm1.334-8.044a25.16 25.16 0 0 0-.415-4.047l-1.967.36c.229 1.247.358 2.493.382 3.726l2-.039Zm-1.438-7.97a30.735 30.735 0 0 0-1.549-3.732l-1.793.884a28.765 28.765 0 0 1 1.447 3.49l1.895-.642Zm-3.552-7.233a34.638 34.638 0 0 0-2.4-3.231l-1.533 1.283c.82.98 1.574 1.997 2.26 3.045l1.673-1.097Zm-5.154-6.169a35.708 35.708 0 0 0-3.063-2.603l-1.207 1.594a33.696 33.696 0 0 1 2.89 2.458l1.38-1.449Zm-6.404-4.846a34.796 34.796 0 0 0-3.579-1.849l-.813 1.828a32.838 32.838 0 0 1 3.374 1.742l1.018-1.721Zm-7.344-3.266a33.89 33.89 0 0 0-1.947-.542l-.478 1.942c.619.153 1.23.323 1.832.51l.593-1.91Zm-1.947-.542a50.478 50.478 0 0 0-2.01-.453l-.4 1.96c.64.13 1.284.275 1.932.435l.478-1.942Zm-6.056-1.098a43.755 43.755 0 0 0-4.11-.279l-.04 2a41.78 41.78 0 0 1 3.922.266l.228-1.987Zm-8.22-.158c-1.385.11-2.748.29-4.09.538l.364 1.967a37.88 37.88 0 0 1 3.884-.512l-.159-1.993Zm-8.096 1.497c-1.32.39-2.615.847-3.887 1.37l.76 1.85a38.12 38.12 0 0 1 3.693-1.302l-.566-1.918Zm-7.614 3.121a44.4 44.4 0 0 0-3.533 2.095l1.097 1.672a42.403 42.403 0 0 1 3.375-2l-.938-1.767Zm-6.867 4.497c-1.061.834-2.1 1.72-3.113 2.655l1.356 1.47a50.32 50.32 0 0 1 2.994-2.554l-1.237-1.572Zm-6.02 5.537c-.921.98-1.82 2.002-2.697 3.064l1.542 1.273a61.08 61.08 0 0 1 2.612-2.967l-1.457-1.37Zm-5.197 6.284a76.262 76.262 0 0 0-2.316 3.355l1.675 1.093a74.256 74.256 0 0 1 2.255-3.268l-1.614-1.18Zm-4.453 6.816a90.963 90.963 0 0 0-1.97 3.551l1.77.932a88.994 88.994 0 0 1 1.927-3.474l-1.727-1.01Zm-3.786 7.184a106.536 106.536 0 0 0-1.67 3.702l1.838.788c.53-1.235 1.076-2.445 1.639-3.632l-1.807-.858Zm-3.203 7.46c-.483 1.248-.95 2.515-1.399 3.8l1.888.66a120.12 120.12 0 0 1 1.376-3.737l-1.865-.722Zm-2.675 7.643c-.402 1.277-.789 2.57-1.16 3.879l1.925.545c.366-1.29.746-2.565 1.142-3.823l-1.907-.6Zm-2.206 7.789c-.165.654-.327 1.311-.485 1.972l1.946.464c.155-.652.315-1.301.478-1.945l-1.94-.491Zm-.485 1.972-.442 1.855 1.946.463c.144-.604.29-1.221.442-1.854l-1.946-.464Zm-1.31 5.525a986.472 986.472 0 0 0-.86 3.675l1.949.451c.266-1.152.552-2.372.857-3.667l-1.947-.459Zm-1.703 7.365a333.633 333.633 0 0 0-.81 3.688l1.957.417c.24-1.131.508-2.348.804-3.667l-1.951-.438Zm-1.567 7.417a104.17 104.17 0 0 0-.654 3.75l1.976.305c.173-1.123.384-2.334.642-3.679l-1.964-.376Zm-1.134 7.548a62.612 62.612 0 0 0-.246 3.823l1.999.07c.044-1.25.118-2.452.238-3.702l-1.991-.191Zm-.306 7.633c-.001 1.158.007 2.402.016 3.777l2-.013c-.009-1.378-.017-2.613-.016-3.761l-2-.003Zm.038 7.547c.002.606.003 1.236.003 1.892h2c0-.659-.001-1.291-.003-1.898l-2 .006Z" fill="#203040"/>
  <g clip-path="url(#a)">
    <path d="M121.256 67.575a.432.432 0 0 0-.61-.175.494.494 0 0 0-.164.65.433.433 0 0 0 .611.175.493.493 0 0 0 .163-.65ZM128.858 81.595a.433.433 0 0 0-.611-.174.494.494 0 0 0-.164.65.433.433 0 0 0 .611.174.494.494 0 0 0 .164-.65Z" fill="#FFC238"/>
    <path d="M130.697 83.816c1.069-.4 1.803-1.201 2.069-2.256a3.302 3.302 0 0 0-.314-2.428c-.51-.942-1.474-1.758-2.799-2.327 1.459-1.478 3.598-4.303 3.017-6.351l.433-.266a.493.493 0 0 0 .163-.65.433.433 0 0 0-.611-.175l-.432.266c-1.378-1.563-4.751-.997-6.674-.393.201-1.507.018-2.803-.492-3.745-.407-.75-1.022-1.276-1.818-1.503-.991-.283-2.01-.006-2.87.78-.875.8-1.557 2.097-1.974 3.753-.551 2.19-.636 4.918-.24 6.795a2.984 2.984 0 0 0-1.246.43c-1.157.711-1.726 2.096-1.523 3.423-1.263.209-2.529-.421-3.184-1.63a.432.432 0 0 0-.61-.174.493.493 0 0 0-.164.65c.866 1.597 2.562 2.409 4.23 2.07a3.38 3.38 0 0 0 .226.417c-1.109 1.37-1.298 3.34-.432 4.936a.433.433 0 0 0 .611.175.494.494 0 0 0 .164-.65 3.496 3.496 0 0 1 .266-3.751c.978.85 2.389 1.018 3.546.307.387-.239.716-.556.973-.934 1.991 1.954 6.659 4.364 9.685 3.231Zm-7.984-7.79c.384-.51.764-1.112 1.123-1.788l.892 1.645a11.816 11.816 0 0 0-2.015.143Zm3.073-.096-1.458-2.69c.342-.753.629-1.52.843-2.254l2.87 5.293a14.532 14.532 0 0 0-2.255-.35Zm2.083-6.253 2.585 4.768c-.423.584-.923 1.17-1.452 1.704l-3.245-5.985a13.42 13.42 0 0 1 2.112-.487Zm3.848.813c.351.647.09 1.778-.696 3.097l-2.171-4.004c1.466-.065 2.516.26 2.867.907Zm-10.765-5c.638-.583 1.348-.784 2.056-.582.656.187 1.156.682 1.446 1.431.763 1.969-.131 4.793-1.032 6.705-.823 1.744-1.812 3.099-2.646 3.623l-.002.001-.037.023h-.001c-.288.174-.535.232-.738.174-.205-.058-.399-.253-.568-.565a3.603 3.603 0 0 1-.267-.659c-.511-1.669-.47-4.624.096-6.874.37-1.47.955-2.603 1.693-3.277Zm-4.414 14.333c-.617-1.137-.249-2.596.818-3.253a2.12 2.12 0 0 1 1.064-.319c.317.854.77 1.37 1.347 1.534l.06.016-.018.062c-.155.615.039 1.29.574 2.01-.193.338-.463.62-.791.821-1.068.656-2.438.265-3.054-.871Zm4.713-.33a3.543 3.543 0 0 1-.403-.576c-.169-.312-.23-.589-.175-.808.054-.215.226-.414.509-.592l.002-.002a.805.805 0 0 0 .037-.022l.002-.001c.843-.507 2.44-.742 4.269-.629 1.999.124 4.747.709 5.969 2.4.464.643.617 1.352.441 2.05-.19.753-.709 1.308-1.502 1.605-2.756 1.031-7.554-1.534-9.149-3.426Z" fill="#516171"/>
    <path d="M126.888 80.856c-1.314-.448-2.735-1.233-3.709-2.049a.43.43 0 0 0-.628.08.497.497 0 0 0 .075.669c1.052.88 2.58 1.727 3.989 2.207a.442.442 0 0 0 .562-.309.482.482 0 0 0-.289-.598ZM120.698 74.228c-.188-1.308-.121-3.02.175-4.467.052-.257-.1-.51-.342-.567-.242-.056-.48.108-.532.365-.317 1.553-.388 3.397-.186 4.812.038.26.266.439.51.399.244-.04.412-.282.375-.542Z" fill="#FFC238"/>
  </g>
  <defs>
    <clipPath id="a">
      <path fill="#fff" transform="matrix(-.47662 -.87911 .85187 -.52375 119.174 92.303)" d="M0 0h24.016v23.274H0z"/>
    </clipPath>
  </defs>
</svg>