<svg width="465" height="153" fill="none" xmlns="http://www.w3.org/2000/svg"><path opacity=".5" d="M464.219 1.695a1 1 0 1 0-1.438-1.39l1.438 1.39ZM341.5 42l-.132.991.132-.991Zm-89-16-.205-.979.205.979Zm-67 53 .585.81-.585-.81ZM82 96.5l-.153.988L82 96.5ZM5.108 152.451a1 1 0 0 0 1.343.441l8.031-4.062a1 1 0 0 0-.902-1.785l-7.14 3.611-3.61-7.138a1 1 0 1 0-1.785.903l4.063 8.03Zm2.471-1.971a1 1 0 0 0-1.883-.675l1.883.675Zm-.452-4.386a1 1 0 0 0 1.85.762l-1.85-.762Zm3.414-2.816a1 1 0 1 0-1.816-.839l1.816.839Zm-.078-4.413a1 1 0 1 0 1.781.909l-1.781-.909Zm3.626-2.539a1 1 0 0 0-1.746-.977l1.746.977Zm.259-4.404a1 1 0 1 0 1.707 1.042l-1.707-1.042Zm3.804-2.249a1 1 0 1 0-1.666-1.107l1.666 1.107Zm.605-4.381a1 1 0 0 0 1.62 1.173l-1.62-1.173Zm3.968-1.936a1 1 0 1 0-1.57-1.238l1.57 1.238Zm.96-4.312a1 1 0 0 0 1.516 1.305l-1.516-1.305Zm4.122-1.59a1 1 0 0 0-1.455-1.372l1.455 1.372Zm1.348-4.209a1 1 0 1 0 1.388 1.439l-1.388-1.439Zm4.255-1.189a1 1 0 1 0-1.314-1.508l1.314 1.508Zm1.764-4.049a1 1 0 1 0 1.231 1.576l-1.23-1.576Zm4.357-.726a1 1 0 0 0-1.14-1.644l1.14 1.644Zm2.213-3.824a1 1 0 1 0 1.039 1.709l-1.04-1.709Zm4.412-.201a1 1 0 0 0-.93-1.771l.93 1.771Zm2.676-3.517a1 1 0 0 0 .812 1.828l-.812-1.828Zm4.4.377a1 1 0 1 0-.686-1.878l.686 1.878Zm3.122-3.121a1 1 0 1 0 .554 1.921l-.554-1.921Zm4.304.98a1 1 0 0 0-.418-1.955l.418 1.956Zm3.528-2.655a1 1 0 1 0 .28 1.98l-.28-1.98Zm4.126 1.573a1 1 0 0 0-.142-1.995l.142 1.995Zm3.86-2.145a1 1 0 1 0 .007 2l-.008-2Zm3.878 2.112a1 1 0 0 0 .122-1.996l-.122 1.996Zm4.104-1.627a1 1 0 1 0-.246 1.985l.246-1.985Zm3.648 2.555a1 1 0 1 0 .301-1.977l-.301 1.977Zm4.136-1.4a1 1 0 1 0-.293 1.978l.293-1.978Zm3.558 2.538a1 1 0 1 0 .282-1.98l-.282 1.98Zm4.147-1.442a1 1 0 0 0-.27 1.982l.27-1.982Zm3.606 2.492a1 1 0 0 0 .253-1.984l-.253 1.984Zm4.111-1.51a1 1 0 1 0-.234 1.986l.234-1.986Zm3.648 2.421a1.001 1.001 0 0 0 .211-1.99l-.211 1.99Zm4.072-1.608a1 1 0 0 0-.183 1.992l.183-1.992Zm3.715 2.317a1 1 0 1 0 .149-1.995l-.149 1.995Zm4.014-1.745a1 1 0 1 0-.108 1.997l.108-1.997Zm3.804 2.163a1 1 0 1 0 .06-1.999l-.06 1.999Zm3.92-1.937a1 1 0 1 0-.003 2l.003-2Zm3.922 1.941a1 1 0 0 0-.064-1.999l.064 1.999Zm3.793-2.197a1 1 0 0 0 .142 1.995l-.142-1.995Zm4.063 1.629a1 1 0 0 0-.231-1.986l.231 1.986Zm3.572-2.52a1 1 0 1 0 .327 1.972l-.327-1.973Zm4.206 1.224a1 1 0 0 0-.431-1.953l.431 1.953Zm3.292-2.883a1 1 0 1 0 .538 1.927l-.538-1.927Zm4.31.762a1 1 0 0 0-.642-1.894l.642 1.894Zm2.962-3.222a1 1 0 0 0 .74 1.858l-.74-1.858Zm4.369.309a1 1 0 0 0-.829-1.82l.829 1.82Zm2.635-3.49a1 1 0 1 0 .906 1.782l-.906-1.782Zm4.377-.066a1 1 0 0 0-.972-1.748l.972 1.748Zm2.38-3.685a1 1 0 0 0 1.027 1.716l-1.027-1.716Zm4.358-.34a1 1 0 1 0-1.072-1.688l1.072 1.688Zm2.17-3.798a1 1 0 0 0 1.108 1.664l-1.108-1.664Zm4.343-.533a1 1 0 1 0-1.138-1.644l1.138 1.644Zm2.036-3.875a1 1 0 0 0 1.161 1.628l-1.161-1.628Zm4.397-.734a1 1 0 0 0-1.213-1.59l1.213 1.59Zm1.839-4.05a1 1 0 0 0 1.296 1.523l-1.296-1.523Zm4.309-1.18a1 1 0 1 0-1.375-1.453l1.375 1.452Zm1.411-4.227a.999.999 0 1 0 1.446 1.382l-1.446-1.382Zm4.164-1.597a1 1 0 1 0-1.506-1.316l1.506 1.316Zm1.029-4.336a1 1 0 0 0 1.555 1.258l-1.555-1.258Zm4.038-1.898a1 1 0 0 0-1.587-1.217l1.587 1.217Zm.807-4.386a1 1 0 1 0 1.602 1.197l-1.602-1.197Zm3.985-1.995a1 1 0 1 0-1.599-1.2l1.599 1.2Zm.83-4.384a1 1 0 1 0 1.577 1.23l-1.577-1.23Zm4.056-1.846a1 1 0 1 0-1.533-1.284l1.533 1.284Zm1.131-4.316a1 1 0 1 0 1.467 1.358l-1.467-1.358Zm4.215-1.437a.999.999 0 1 0-1.381-1.447l1.381 1.447Zm1.648-4.144a.999.999 0 1 0 1.276 1.54l-1.276-1.54Zm4.377-.844a1 1 0 0 0-1.16-1.63l1.16 1.63Zm2.228-3.858a1 1 0 0 0 1.038 1.71l-1.038-1.71Zm4.452-.203a1 1 0 0 0-.917-1.777l.917 1.777Zm2.751-3.523a1 1 0 1 0 .803 1.831l-.803-1.831Zm4.433.363a1 1 0 0 0-.699-1.874l.699 1.874Zm3.111-3.184a1 1 0 1 0 .604 1.907l-.604-1.907Zm4.384.802a.999.999 0 1 0-.519-1.931l.519 1.931Zm3.386-2.9a1 1 0 1 0 .444 1.95l-.444-1.95Zm4.433 1.124a1 1 0 0 0-.362-1.967l.362 1.967Zm3.786-2.62a1 1 0 0 0 .258 1.984l-.258-1.984Zm4.347 1.566a1 1 0 1 0-.147-1.995l.147 1.995Zm4.062-2.182a1 1 0 0 0 .03 2l-.03-2Zm4.128 2.062a1 1 0 0 0 .09-1.998l-.09 1.998Zm4.292-1.684a1 1 0 1 0-.207 1.99l.207-1.99Zm3.86 2.53a1 1 0 0 0 .317-1.975l-.317 1.974Zm4.451-1.202a1 1 0 1 0-.415 1.956l.415-1.956Zm3.591 2.9a1 1 0 1 0 .498-1.937l-.498 1.937Zm4.538-.822a1 1 0 0 0-.563 1.92l.563-1.92Zm3.388 3.136a1 1 0 0 0 .611-1.905l-.611 1.904Zm4.572-.599a1 1 0 0 0-.639 1.895l.639-1.895Zm3.293 3.239a1 1 0 0 0 .652-1.89l-.652 1.89Zm4.578-.539a1 1 0 1 0-.649 1.892l.649-1.892Zm3.302 3.23a1 1 0 0 0 .633-1.897l-.633 1.897Zm4.567-.616a1 1 0 0 0-.604 1.906l.604-1.906Zm3.395 3.132a1 1 0 1 0 .566-1.918l-.566 1.918Zm4.541-.793a1 1 0 1 0-.521 1.93l.521-1.93Zm3.531 2.968a1 1 0 1 0 .47-1.944l-.47 1.944Zm4.504-1.03a1 1 0 0 0-.414 1.956l.414-1.956Zm3.692 2.76a1.001 1.001 0 0 0 .355-1.967l-.355 1.968Zm4.423-1.297a1 1 0 0 0-.295 1.978l.295-1.979Zm3.791 2.536a1 1 0 0 0 .26-1.983l-.26 1.983Zm4.214-1.478a1 1 0 0 0-.247 1.985l.247-1.985Zm3.724 2.463a1 1 0 1 0 .23-1.987l-.23 1.987Zm4.187-1.548a1 1 0 0 0-.21 1.989l.21-1.99Zm3.776 2.384a1 1 0 1 0 .184-1.991l-.184 1.991Zm4.148-1.654a1 1 0 0 0-.154 1.994l.154-1.994Zm3.852 2.266a1.001 1.001 0 0 0 .117-1.996l-.117 1.996Zm4.086-1.806a1 1 0 0 0-.074 1.998l.074-1.998Zm3.946 2.096a1.001 1.001 0 0 0 .023-2l-.023 2Zm3.991-2.01a1 1 0 1 0 .035 2l-.035-2Zm4.062 1.866a1 1 0 0 0-.1-1.998l.1 1.998Zm3.85-2.265a1 1 0 0 0 .172 1.992l-.172-1.992Zm4.184 1.567a1 1 0 0 0-.25-1.984l.25 1.984Zm3.659-2.56a1 1 0 1 0 .334 1.97l-.334-1.97Zm4.3 1.207a1 1 0 1 0-.423-1.955l.423 1.955Zm3.416-2.877a1 1 0 0 0 .512 1.933l-.512-1.933Zm4.393.807a1 1 0 1 0-.602-1.907l.602 1.907Zm3.134-3.184a1 1 0 1 0 .691 1.877l-.691-1.877Zm4.451.394a1 1 0 0 0-.775-1.843l.775 1.843Zm2.834-3.456a1 1 0 1 0 .855 1.808l-.855-1.807Zm4.468.006a1 1 0 1 0-.93-1.771l.93 1.77Zm2.536-3.678a1 1 0 0 0 .998 1.733l-.998-1.733Zm4.453-.339a1 1 0 0 0-1.059-1.697l1.059 1.697Zm2.262-3.848a1.001 1.001 0 0 0 1.115 1.66l-1.115-1.66Zm4.418-.631a1 1 0 0 0-1.164-1.626l1.164 1.626Zm2.024-3.978a1 1 0 1 0 1.209 1.593L437.735 23Zm4.379-.876a1.001 1.001 0 0 0-1.249-1.562l1.249 1.562Zm1.828-4.08a1 1 0 0 0 1.284 1.534l-1.284-1.534Zm4.346-1.086a1 1 0 1 0-1.316-1.506l1.316 1.506Zm1.649-4.146a1 1 0 1 0 1.344 1.481l-1.344-1.481Zm4.282-1.231a1 1 0 1 0-1.368-1.458l1.368 1.458Zm1.514-4.207a1 1 0 1 0 1.391 1.436l-1.391-1.436Zm4.269-1.392a1 1 0 0 0-1.412-1.417l1.412 1.417Zm1.37-4.226a1 1 0 0 0 1.43 1.398l-1.43-1.398ZM6.95 152.312c.195-.595.405-1.207.63-1.832l-1.884-.675c-.23.642-.445 1.271-.646 1.883l1.9.624Zm2.026-5.456c.479-1.161 1-2.357 1.565-3.578l-1.816-.839a95.789 95.789 0 0 0-1.598 3.655l1.85.762Zm3.268-7.082c.58-1.136 1.195-2.287 1.845-3.448l-1.746-.977a103.866 103.866 0 0 0-1.88 3.516l1.781.909Zm3.81-6.81a101.636 101.636 0 0 1 2.098-3.291l-1.666-1.107a102.91 102.91 0 0 0-2.138 3.356l1.707 1.042Zm4.323-6.499a94.736 94.736 0 0 1 2.348-3.109l-1.57-1.238a97.237 97.237 0 0 0-2.398 3.174l1.62 1.173Zm4.824-6.116a85.38 85.38 0 0 1 2.606-2.895l-1.455-1.372a87.953 87.953 0 0 0-2.667 2.962l1.516 1.305Zm5.342-5.665a77.376 77.376 0 0 1 2.867-2.628l-1.314-1.508a78.236 78.236 0 0 0-2.94 2.697l1.387 1.439Zm5.862-5.101a68.271 68.271 0 0 1 3.126-2.302l-1.14-1.644a70.573 70.573 0 0 0-3.217 2.37l1.231 1.576Zm6.378-4.417a61.798 61.798 0 0 1 3.373-1.91l-.93-1.771a63.867 63.867 0 0 0-3.482 1.972l1.039 1.709Zm6.86-3.599a57.426 57.426 0 0 1 3.589-1.451l-.686-1.878a59.1 59.1 0 0 0-3.714 1.501l.812 1.828Zm7.265-2.65a55.059 55.059 0 0 1 3.75-.941l-.418-1.956a57.063 57.063 0 0 0-3.886.975l.554 1.921Zm7.558-1.616a55.922 55.922 0 0 1 3.846-.409l-.142-1.994a57.82 57.82 0 0 0-3.984.422l.28 1.98Zm7.713-.553a59.537 59.537 0 0 1 3.87.112l.123-1.996a61.538 61.538 0 0 0-4-.116l.007 2Zm7.73.47c.641.08 1.287.17 1.938.27l.306-1.976a67.078 67.078 0 0 0-1.999-.279l-.246 1.985Zm1.938.27c.657.102 1.309.202 1.955.3l.301-1.977a962.66 962.66 0 0 1-1.95-.3l-.306 1.977Zm5.798.878a714 714 0 0 0 3.851.56l.282-1.98c-1.257-.179-2.536-.365-3.84-.558l-.293 1.978Zm7.729 1.1c1.317.178 2.608.349 3.875.51l.253-1.984a485.14 485.14 0 0 1-3.86-.508l-.268 1.982Zm7.752.986c1.321.155 2.614.3 3.882.435l.211-1.99c-1.26-.133-2.546-.277-3.859-.431l-.234 1.986Zm7.771.819a228.3 228.3 0 0 0 3.898.325l.149-1.995c-1.26-.094-2.548-.201-3.864-.322l-.183 1.992Zm7.804.577c1.332.072 2.636.128 3.912.166l.06-1.999a160.763 160.763 0 0 1-3.864-.164l-.108 1.997Zm7.829.229c1.336.002 2.643-.018 3.925-.059l-.064-1.999c-1.259.04-2.543.06-3.858.058l-.003 2Zm7.86-.261a88.785 88.785 0 0 0 3.921-.366l-.231-1.986a86.906 86.906 0 0 1-3.832.357l.142 1.995Zm7.82-.914a74.69 74.69 0 0 0 3.879-.748l-.431-1.953a72.792 72.792 0 0 1-3.775.728l.327 1.973Zm7.709-1.704a72.35 72.35 0 0 0 3.772-1.165l-.642-1.894a70.198 70.198 0 0 1-3.668 1.132l.538 1.927Zm7.474-2.53a81.585 81.585 0 0 0 3.629-1.548l-.829-1.82a79.804 79.804 0 0 1-3.54 1.51l.74 1.859Zm7.17-3.256c1.149-.584 2.305-1.2 3.471-1.848l-.972-1.748a103.616 103.616 0 0 1-3.405 1.814l.906 1.782Zm6.878-3.817a148.827 148.827 0 0 0 3.331-2.056l-1.072-1.688c-1.11.705-2.205 1.38-3.286 2.028l1.027 1.716Zm6.609-4.19c1.063-.707 2.14-1.44 3.235-2.197l-1.138-1.644a221.356 221.356 0 0 1-3.205 2.177l1.108 1.664Zm6.432-4.444c.53-.378 1.065-.761 1.603-1.15l-1.17-1.622c-.536.387-1.067.768-1.594 1.144l1.161 1.628Zm1.603-1.15a75.777 75.777 0 0 0 1.633-1.212l-1.213-1.59c-.519.395-1.048.789-1.59 1.18l1.17 1.622Zm4.768-3.739a76.421 76.421 0 0 0 3.013-2.704l-1.375-1.452a73.614 73.614 0 0 1-2.934 2.633l1.296 1.523Zm5.87-5.548c.946-.99 1.85-1.984 2.718-2.98l-1.506-1.315a87.393 87.393 0 0 1-2.658 2.913l1.446 1.382Zm5.302-6.057a155.287 155.287 0 0 0 2.483-3.156l-1.587-1.217a151.17 151.17 0 0 1-2.451 3.115l1.555 1.258Zm4.892-6.345c.803-1.075 1.591-2.136 2.383-3.192l-1.599-1.2c-.794 1.057-1.588 2.127-2.386 3.195l1.602 1.197Zm4.79-6.346c.812-1.04 1.634-2.067 2.479-3.076l-1.533-1.284a113.539 113.539 0 0 0-2.523 3.13l1.577 1.23Zm5.077-6.034a63.619 63.619 0 0 1 2.748-2.795l-1.381-1.447a65.211 65.211 0 0 0-2.834 2.884l1.467 1.358Zm5.672-5.4a52.916 52.916 0 0 1 3.101-2.383l-1.16-1.63a55.064 55.064 0 0 0-3.217 2.474l1.276 1.54Zm6.367-4.531a56.675 56.675 0 0 1 3.414-1.913l-.917-1.777a58.628 58.628 0 0 0-3.535 1.98l1.038 1.71Zm6.968-3.605a69.54 69.54 0 0 1 3.63-1.468l-.699-1.874a71.337 71.337 0 0 0-3.734 1.51l.803 1.832Zm7.345-2.745a89.088 89.088 0 0 1 3.78-1.105l-.519-1.931a91.31 91.31 0 0 0-3.865 1.129l.604 1.907Zm7.61-2.054c.642-.146 1.295-.29 1.959-.428l-.41-1.958c-.675.142-1.34.287-1.993.436l.444 1.95Zm1.959-.428c.684-.143 1.36-.276 2.03-.4l-.362-1.966c-.686.126-1.378.262-2.078.408l.41 1.958Zm6.074-1.035a73.449 73.449 0 0 1 4.089-.418l-.147-1.995a75.338 75.338 0 0 0-4.2.43l.258 1.983Zm8.181-.6c1.39-.02 2.754.001 4.098.062l.09-1.998a70.365 70.365 0 0 0-4.218-.064l.03 2Zm8.183.367c1.373.143 2.727.325 4.067.54l.317-1.974a75.542 75.542 0 0 0-4.177-.555l-.207 1.99Zm8.103 1.295a96.85 96.85 0 0 1 4.006.944l.498-1.937a98.362 98.362 0 0 0-4.089-.963l-.415 1.956Zm7.981 2.041c1.315.386 2.631.793 3.951 1.216l.611-1.904a170.514 170.514 0 0 0-3.999-1.23l-.563 1.918Zm7.884 2.513a634.8 634.8 0 0 1 3.932 1.344l.652-1.89a638.317 638.317 0 0 0-3.945-1.349l-.639 1.895Zm7.861 2.697c1.3.446 2.616.893 3.951 1.338l.633-1.897a464.562 464.562 0 0 1-3.935-1.333l-.649 1.892Zm7.914 2.628c1.31.416 2.642.826 3.999 1.226l.566-1.918a212.38 212.38 0 0 1-3.961-1.214l-.604 1.906Zm8.019 2.364c1.325.357 2.675.704 4.052 1.037l.47-1.944a154.86 154.86 0 0 1-4.001-1.024l-.521 1.93Zm8.142 1.963c1.342.284 2.71.553 4.106.805l.355-1.968a138.253 138.253 0 0 1-4.047-.793l-.414 1.956Zm8.234 1.485c.689.102 1.384.2 2.087.294l.264-1.982c-.692-.093-1.377-.19-2.056-.29l-.295 1.978Zm2.087.294c.67.09 1.337.178 1.999.264l.26-1.983c-.661-.086-1.326-.174-1.995-.263l-.264 1.982Zm5.966.77c1.339.167 2.663.327 3.971.479l.23-1.987a481.91 481.91 0 0 1-3.954-.476l-.247 1.985Zm7.948.92c1.344.142 2.673.274 3.986.395l.184-1.991a311.6 311.6 0 0 1-3.96-.393l-.21 1.989Zm7.98.735c1.35.104 2.685.195 4.006.272l.117-1.996c-1.308-.077-2.63-.167-3.969-.27l-.154 1.994Zm8.018.464c1.354.05 2.693.083 4.02.098l.023-2a157.752 157.752 0 0 1-3.969-.096l-.074 1.998Zm8.046.088a124.1 124.1 0 0 0 4.027-.134l-.1-1.998c-1.309.066-2.629.11-3.962.132l.035 2Zm8.049-.407c1.346-.116 2.683-.257 4.012-.425l-.25-1.984c-1.302.164-2.613.303-3.934.417l.172 1.992Zm8.005-1.014a90.316 90.316 0 0 0 3.966-.764l-.423-1.955a88.054 88.054 0 0 1-3.877.747l.334 1.972Zm7.894-1.708a86.221 86.221 0 0 0 3.881-1.126l-.602-1.907a84.57 84.57 0 0 1-3.791 1.1l.512 1.933Zm7.706-2.433a88.678 88.678 0 0 0 3.76-1.483l-.775-1.843a86.582 86.582 0 0 1-3.676 1.449l.691 1.877Zm7.449-3.13a97.953 97.953 0 0 0 3.613-1.803l-.93-1.771a94.86 94.86 0 0 1-3.538 1.766l.855 1.807Zm7.147-3.748a112.27 112.27 0 0 0 3.455-2.072l-1.059-1.697a109.69 109.69 0 0 1-3.394 2.036l.998 1.733Zm6.832-4.26a131.972 131.972 0 0 0 3.303-2.291l-1.164-1.626a130.916 130.916 0 0 1-3.254 2.257l1.115 1.66Zm6.536-4.676c1.05-.796 2.106-1.619 3.17-2.469l-1.249-1.562c-1.051.84-2.094 1.652-3.13 2.438l1.209 1.593Zm6.282-5.015a193.194 193.194 0 0 0 3.062-2.62l-1.316-1.506c-1.018.889-2.028 1.753-3.03 2.592l1.284 1.534Zm6.055-5.285c.972-.881 1.951-1.785 2.938-2.712l-1.368-1.458c-.98.919-1.95 1.815-2.914 2.689l1.344 1.481Zm5.843-5.483a277.14 277.14 0 0 0 2.878-2.828l-1.412-1.417c-.96.958-1.913 1.894-2.857 2.809l1.391 1.436Zm5.678-5.656c.471-.481.943-.967 1.417-1.458l-1.438-1.39c-.472.488-.941.972-1.409 1.45l1.43 1.398Z" fill="#203040"/><g clip-path="url(#a)"><path d="M359.958 54.986a.488.488 0 1 0-.977 0 .488.488 0 0 0 .977 0ZM359.958 71.587a.488.488 0 1 0-.977 0 .488.488 0 0 0 .977 0Z" fill="#FFC238"/><path d="M360.558 74.564c1.216.229 2.322-.082 3.114-.874.636-.636.949-1.438.949-2.327 0-1.115-.493-2.367-1.455-3.595 2.138-.516 5.609-1.857 6.11-3.993h.545a.489.489 0 1 0 0-.977h-.545c-.502-2.14-3.982-3.479-6.11-3.993.962-1.228 1.455-2.48 1.455-3.595-.001-.888-.313-1.69-.949-2.327-.792-.792-1.898-1.102-3.114-.874-1.237.232-2.548 1.012-3.791 2.255-1.644 1.644-3.123 4.02-3.711 5.903a3.422 3.422 0 0 0-4.595 1.91 3.405 3.405 0 0 1-2.175-3.185.488.488 0 1 0-.976 0 4.377 4.377 0 0 0 2.939 4.147 3.375 3.375 0 0 0 0 .494 4.378 4.378 0 0 0-2.939 4.148.488.488 0 1 0 .976 0c0-1.43.874-2.681 2.175-3.185a3.422 3.422 0 0 0 4.595 1.91c.882 2.823 4.061 7.512 7.502 8.158Zm-3.556-11.277c.625-.242 1.293-.57 1.979-.974v1.948a13.702 13.702 0 0 0-1.979-.974Zm2.956 1.592v-3.185a16.845 16.845 0 0 0 1.953-1.541v6.268a16.845 16.845 0 0 0-1.953-1.542Zm5.176-4.416v5.647c-.699.287-1.474.535-2.247.72v-7.087c.774.185 1.548.433 2.247.72Zm3.222 2.824c0 .766-.827 1.628-2.246 2.37v-4.741c1.419.742 2.246 1.604 2.246 2.37Zm-7.617-10.319c.902-.169 1.677.04 2.243.606.524.524.744 1.237.634 2.06-.288 2.166-2.581 4.185-4.414 5.392-1.673 1.1-3.303 1.762-4.361 1.772h-.05c-.36-.003-.625-.086-.786-.248-.165-.164-.248-.443-.248-.812 0-.215.028-.46.085-.731h.001c.371-1.762 1.926-4.363 3.615-6.052 1.103-1.104 2.237-1.79 3.281-1.986Zm-11.523 10.319a2.444 2.444 0 0 1 3.611-2.144c-.138.931.025 1.636.487 2.098l.049.046-.048.045c-.463.462-.625 1.167-.488 2.098a2.444 2.444 0 0 1-3.611-2.144Zm4.626 2.28a3.594 3.594 0 0 1-.085-.731c0-.37.083-.649.248-.813.161-.161.426-.245.786-.248h.05c1.058.01 2.688.673 4.361 1.773 1.826 1.201 4.125 3.22 4.414 5.39.109.824-.11 1.537-.635 2.061-.565.566-1.34.775-2.243.606-3.135-.59-6.357-5.487-6.896-8.038Z" fill="#516171"/><path d="M358.474 69.855c-1.013-1.115-1.954-2.588-2.457-3.844a.489.489 0 0 0-.907.363c.543 1.357 1.556 2.942 2.642 4.138a.487.487 0 1 0 .722-.657ZM356.019 60.59c.493-1.265 1.434-2.748 2.455-3.872a.488.488 0 0 0-.722-.657c-1.097 1.207-2.109 2.806-2.643 4.173a.488.488 0 1 0 .91.355Z" fill="#FFC238"/></g><defs><clipPath id="a"><path fill="#fff" transform="rotate(-90 210.56 -134.75)" d="M0 0h25v25H0z"/></clipPath></defs></svg>